<svg width="26" height="21" viewBox="0 0 26 21" xmlns="http://www.w3.org/2000/svg">
<path d="M6.88715 1.4663C5.50011 0.885684 4.34424 0.401829 3.44622 0.168098C2.57633 -0.0583001 1.45513 -0.186041 0.63023 0.66455C-0.194673 1.51512 -0.0530001 2.65289 0.182129 3.53381C0.424851 4.44323 0.91731 5.61116 1.50825 7.01265L2.49044 9.34224H10.2922C10.9213 9.34224 11.4312 9.86061 11.4312 10.5C11.4312 11.1394 10.9213 11.6578 10.2922 11.6578H2.49046L1.50825 13.9874C0.91731 15.3889 0.424851 16.5568 0.182129 17.4662C-0.0530001 18.3471 -0.194673 19.4849 0.63023 20.3355C1.45513 21.1861 2.57633 21.0583 3.44622 20.8319C4.34424 20.5982 5.50011 20.1143 6.88714 19.5337L24.2631 12.2607C24.5754 12.1303 24.9134 11.9889 25.1658 11.8384C25.3935 11.7025 26 11.3015 26 10.5C26 9.69852 25.3935 9.29747 25.1658 9.16162C24.9134 9.01112 24.5754 8.86971 24.2631 8.73927L6.88715 1.4663Z"/>
</svg>
