<?xml version="1.0" encoding="utf-8"?>
<!-- Generator: Adobe Illustrator 25.3.1, SVG Export Plug-In . SVG Version: 6.00 Build 0)  -->
<svg version="1.1" xmlns="http://www.w3.org/2000/svg" xmlns:xlink="http://www.w3.org/1999/xlink" x="0px" y="0px"
	 viewBox="0 0 50 50" style="enable-background:new 0 0 50 50;" xml:space="preserve">
<path d="M44.4,36.7H16.7c-0.9,0-1.5-0.7-1.5-1.4c0-0.7,0.7-1.3,1.4-1.3h24.8c0.3,0,0.6-0.2,0.7-0.4l7.8-18.4c0.2-0.4-0.1-1-0.7-1
	H15.7c-0.3,0-0.7-0.2-0.8-0.6l-2.8-12c-0.2-0.8-0.8-1.2-1.5-1.3L1.8,0C0.9,0,0.1,0.7,0,1.5c0,0.9,0.7,1.7,1.5,1.8l7,0.3
	c0.3,0,0.7,0.2,0.7,0.6l2.3,9.9l0,0l3.9,16.1c0.1,0.3-0.1,0.8-0.4,0.9c-1.9,0.7-3.2,2.4-3.2,4.4c0,2.5,2.2,4.7,4.8,4.7h27.6
	c0.9,0,1.7-0.8,1.7-1.7C45.9,37.7,45.4,36.7,44.4,36.7z"/>
<circle cx="19.6" cy="46.4" r="3.6"/>
<circle cx="38.5" cy="46.4" r="3.6"/>
</svg>
