<svg xmlns="http://www.w3.org/2000/svg" viewBox="0 0 23 26"><g id="Layer_2" data-name="Layer 2"><g id="Layer_1-2" data-name="Layer 1"><path d="M19.67,26H3.33A3.31,3.31,0,0,1,1,25,3.38,3.38,0,0,1,0,22.6V5.81a1.13,1.13,0,0,1,.05-.32A.8.8,0,0,1,.2,5.2L3.69.41A1,1,0,0,1,4.5,0h14a1,1,0,0,1,.81.41L22.8,5.2a.8.8,0,0,1,.15.29,1.13,1.13,0,0,1,.05.32V22.6A3.38,3.38,0,0,1,22,25,3.31,3.31,0,0,1,19.67,26ZM2,6.8V22.6a1.47,1.47,0,0,0,.4,1,1.28,1.28,0,0,0,.93.4H19.67a1.28,1.28,0,0,0,.93-.4,1.47,1.47,0,0,0,.4-1V6.8Zm1-2H20L18,2H5ZM11.5,16.4a5.63,5.63,0,0,1-4-1.71A5.85,5.85,0,0,1,5.83,10.6a1,1,0,0,1,2,0,3.9,3.9,0,0,0,1.09,2.7,3.66,3.66,0,0,0,5.16,0,3.92,3.92,0,0,0,1.09-2.7,1,1,0,0,1,2,0,5.85,5.85,0,0,1-1.65,4.09A5.63,5.63,0,0,1,11.5,16.4Z"/></g></g></svg>