<?xml version="1.0" encoding="utf-8"?>
<!-- Generator: Adobe Illustrator 27.1.1, SVG Export Plug-In . SVG Version: 6.00 Build 0)  -->
<svg version="1.1" xmlns="http://www.w3.org/2000/svg" xmlns:xlink="http://www.w3.org/1999/xlink" x="0px" y="0px"
	 viewBox="0 0 50 40" style="enable-background:new 0 0 50 40;" xml:space="preserve">
<path d="M5.2,40C2.3,40,0,37.7,0,34.8V5.2C0,2.3,2.3,0,5.2,0h39.7C47.7,0,50,2.3,50,5.2v29.7c0,2.8-2.3,5.2-5.2,5.2H5.2z M44.8,37.2
	c1.3,0,2.3-1,2.3-2.3V16.7h-9.3c1.2,1,2.5,1.7,3.6,2c0.8,0.2,1.2,1,1,1.7c-0.2,0.6-0.7,1.1-1.4,1.1c-0.1,0-0.3,0-0.4,0
	c-2.1-0.6-4.1-2-5.5-3.3v19H44.8z M2.8,34.8c0,1.3,1.1,2.4,2.3,2.4h27.1v-19c-1.4,1.3-3.4,2.7-5.5,3.3c-0.1,0-0.2,0-0.4,0
	c-0.6,0-1.2-0.4-1.4-1.1c-0.2-0.8,0.2-1.5,1-1.7c2.2-0.6,4.3-2.5,5.4-3.7c-2.7-0.8-6.6-2-7.8-3.1c-1-0.9-1.5-2-1.6-3.3
	C22,7.3,22.4,6,23.3,5.1c0.8-1,2-1.5,3.3-1.6c0.1,0,0.2,0,0.3,0c1.2,0,2.3,0.4,3.2,1.2c1,0.9,2.5,3.9,3.6,6.5
	c1.2-2.6,2.6-5.6,3.6-6.5c0.9-0.8,2-1.2,3.2-1.2c0.1,0,0.2,0,0.3,0c1.3,0.1,2.5,0.6,3.3,1.6c1.8,2,1.6,5-0.4,6.8
	c-0.6,0.6-2,1.2-4.1,1.9h7.5V5.2c0-1.3-1-2.3-2.3-2.3h-9.7v4c0,0.8-0.6,1.4-1.4,1.4s-1.4-0.6-1.4-1.4v-4H5.2c-1.3,0-2.3,1.1-2.3,2.4
	v8.6H27c0.8,0,1.4,0.6,1.4,1.4s-0.6,1.4-1.4,1.4H2.8V34.8z M40.5,6.3c-0.5,0-0.9,0.2-1.3,0.5c-0.5,0.4-1.5,2.4-2.7,5
	c2.8-0.9,4.8-1.7,5.3-2.1C42.7,9,42.7,7.8,42,7c-0.3-0.4-0.8-0.6-1.4-0.7L40.5,6.3z M26.7,6.3c-0.5,0-1,0.3-1.3,0.7
	c-0.3,0.4-0.5,0.9-0.5,1.4c0,0.5,0.3,1,0.7,1.4c0.5,0.4,2.5,1.2,5.3,2.1c-1.2-2.6-2.2-4.6-2.7-5c-0.4-0.3-0.8-0.5-1.3-0.5L26.7,6.3z
	"/>
<path d="M6.9,26.1c-0.8,0-1.4-0.6-1.4-1.4c0-0.8,0.6-1.4,1.4-1.4h14c0.8,0,1.4,0.6,1.4,1.4c0,0.8-0.6,1.4-1.4,1.4H6.9z"/>
<path d="M6.9,30.4c-0.8,0-1.4-0.6-1.4-1.4c0-0.8,0.6-1.4,1.4-1.4h9.2c0.8,0,1.4,0.6,1.4,1.4c0,0.8-0.6,1.4-1.4,1.4H6.9z"/>
</svg>
