<svg xmlns="http://www.w3.org/2000/svg" viewBox="0 0 30 26"><g id="Layer_2" data-name="Layer 2"><g id="Layer_1-2" data-name="Layer 1"><path class="cls-1" d="M15,26a1,1,0,0,1-.7-.29L2.46,14.08a8.15,8.15,0,0,1,0-11.67,8.45,8.45,0,0,1,11.82,0l.72.7.72-.7A8.37,8.37,0,0,1,18.43.62a8.63,8.63,0,0,1,6.4,0,8.37,8.37,0,0,1,2.71,1.79,8.08,8.08,0,0,1,1.82,2.67,8.17,8.17,0,0,1-1.82,9L15.7,25.71A1,1,0,0,1,15,26ZM8.37,2A6.4,6.4,0,0,0,3.86,3.83a6.16,6.16,0,0,0,0,8.82L15,23.6l11.14-11a6.21,6.21,0,0,0,1.38-2,6.17,6.17,0,0,0,0-4.77,6.36,6.36,0,0,0-1.38-2h0a6.23,6.23,0,0,0-2.07-1.35,6.44,6.44,0,0,0-4.88,0,6.23,6.23,0,0,0-2.07,1.35L15.7,5.23a1,1,0,0,1-1.4,0l-1.42-1.4A6.51,6.51,0,0,0,8.37,2Z"/></g></g></svg>