<svg width="22" height="22" viewBox="0 0 22 22" xmlns="http://www.w3.org/2000/svg">
<path d="M6.11111 0C2.74144 0 0 2.62533 0 5.85227V15.2159C0 18.4429 2.74144 21.0682 6.11111 21.0682H15.8889C19.2586 21.0682 22 18.4429 22 15.2159V5.85227C22 2.62533 19.2586 0 15.8889 0H6.11111ZM6.11111 2.34091H15.8889C17.9104 2.34091 19.5556 3.91634 19.5556 5.85227V15.2159C19.5556 17.1518 17.9104 18.7273 15.8889 18.7273H6.11111C4.08956 18.7273 2.44444 17.1518 2.44444 15.2159V5.85227C2.44444 3.91634 4.08956 2.34091 6.11111 2.34091ZM17.1111 3.51136C16.787 3.51136 16.4761 3.63468 16.2469 3.85418C16.0177 4.07368 15.8889 4.37139 15.8889 4.68182C15.8889 4.99224 16.0177 5.28995 16.2469 5.50945C16.4761 5.72896 16.787 5.85227 17.1111 5.85227C17.4353 5.85227 17.7461 5.72896 17.9754 5.50945C18.2046 5.28995 18.3333 4.99224 18.3333 4.68182C18.3333 4.37139 18.2046 4.07368 17.9754 3.85418C17.7461 3.63468 17.4353 3.51136 17.1111 3.51136ZM11 4.68182C7.63033 4.68182 4.88889 7.30715 4.88889 10.5341C4.88889 13.761 7.63033 16.3864 11 16.3864C14.3697 16.3864 17.1111 13.761 17.1111 10.5341C17.1111 7.30715 14.3697 4.68182 11 4.68182ZM11 7.02273C13.0216 7.02273 14.6667 8.59816 14.6667 10.5341C14.6667 12.47 13.0216 14.0455 11 14.0455C8.97844 14.0455 7.33333 12.47 7.33333 10.5341C7.33333 8.59816 8.97844 7.02273 11 7.02273Z"/>
</svg>