<?xml version="1.0" encoding="utf-8"?>
<!-- Generator: Adobe Illustrator 25.3.1, SVG Export Plug-In . SVG Version: 6.00 Build 0)  -->
<svg version="1.1" xmlns="http://www.w3.org/2000/svg" xmlns:xlink="http://www.w3.org/1999/xlink" x="0px" y="0px"
	 viewBox="0 0 50 50" style="enable-background:new 0 0 50 50;" xml:space="preserve">
<path d="M47.7,32.9c-3.6-0.7-7-1.9-10.1-3.6c-1.1-0.6-2.4-0.4-3.3,0.5l-6.6,6.6C22,32.8,17.2,28,13.5,22.4l6.7-6.7
	c0.9-0.9,1-2.2,0.5-3.4C19,9.3,17.8,5.9,17,2.3C16.8,1,15.6,0,14.3,0H2.8C1.1,0-0.2,1.5,0,3.2c3.8,24,22.7,43,46.8,46.8
	c1.7,0.3,3.2-1.1,3.2-2.8V35.7C50,34.3,49,33.2,47.7,32.9z"/>
</svg>
