<svg xmlns="http://www.w3.org/2000/svg" width="27" height="26" viewBox="0 0 27 26">
<path d="M26.9331 19.331C26.8541 19.0436 26.7135 18.7754 26.5203 18.5436C26.3271 18.3119 26.0855 18.1217 25.8113 17.9855L20.0537 15.1107C19.5891 14.8734 19.0514 14.8048 18.5388 14.9176C18.0261 15.0304 17.5726 15.317 17.261 15.7251L16.3301 16.954C16.2823 17.0179 16.2119 17.0627 16.1321 17.08C16.0524 17.0974 15.9689 17.086 15.8972 17.0482C14.5282 16.2975 13.2749 15.3661 12.1736 14.281C11.0475 13.2198 10.0808 12.0122 9.30177 10.6931C9.26248 10.6241 9.25073 10.5436 9.26873 10.4667C9.28673 10.3899 9.33324 10.3221 9.39951 10.276L10.6702 9.37904C11.0938 9.07875 11.3912 8.64178 11.5082 8.1478C11.6253 7.65383 11.5542 7.13577 11.3079 6.68811L8.34294 1.1448C8.20055 0.880221 8.0019 0.647522 7.75994 0.461867C7.51797 0.276212 7.23813 0.141767 6.93863 0.0672949C6.63913 -0.00717745 6.32671 -0.0200061 6.02173 0.0296451C5.71674 0.0792962 5.42604 0.190313 5.16856 0.35546L1.552 2.6876C1.04418 3.0134 0.634122 3.46207 0.362913 3.98866C0.0917045 4.51524 -0.0311342 5.10125 0.0067028 5.68798C0.0545687 6.68 0.19319 7.66601 0.420955 8.63455C1.40306 12.2852 3.77221 16.0391 7.06295 19.2144C10.3537 22.3897 14.2542 24.6635 18.0429 25.6008C19.0481 25.8202 20.0714 25.9538 21.101 26H21.3337C21.9017 25.9988 22.4608 25.8637 22.9622 25.6065C23.4635 25.3493 23.892 24.9779 24.2102 24.5245L26.6212 21.0397C26.7952 20.7922 26.913 20.512 26.9667 20.2175C27.0205 19.923 27.009 19.6209 26.9331 19.331ZM25.0713 20.0396L22.6742 23.5288C22.5151 23.7551 22.2974 23.9375 22.0427 24.0578C21.788 24.1782 21.5051 24.2324 21.222 24.215C20.3089 24.1744 19.4011 24.0588 18.5084 23.8697C15.0361 22.9996 11.4428 20.8962 8.38483 17.9362C5.32681 14.9762 3.13454 11.5273 2.23156 8.18157C2.03361 7.32154 1.91215 6.44681 1.86851 5.56689C1.84991 5.29465 1.90591 5.02249 2.0309 4.77768C2.15589 4.53288 2.34548 4.32403 2.58065 4.17209L6.19721 1.84892C6.25227 1.81341 6.31713 1.79466 6.38339 1.79511H6.47182C6.51766 1.80662 6.56043 1.82736 6.59734 1.85596C6.63425 1.88456 6.66444 1.92038 6.68593 1.96105L9.66482 7.50884C9.70184 7.57764 9.71234 7.65686 9.69444 7.73241C9.67654 7.80796 9.63141 7.87495 9.56708 7.92145L8.29639 8.81843C7.86551 9.12731 7.56697 9.57758 7.45719 10.0841C7.34742 10.5907 7.43402 11.1184 7.70062 11.5677C8.56211 13.0187 9.62717 14.3482 10.8657 15.5188C12.0805 16.7123 13.4604 17.7386 14.9663 18.5686C15.4325 18.8254 15.9802 18.9089 16.506 18.8031C17.0317 18.6973 17.499 18.4097 17.8195 17.9945L18.7504 16.7656C18.7987 16.7036 18.8682 16.6602 18.9466 16.6429C19.025 16.6257 19.1072 16.6358 19.1786 16.6714L24.9363 19.5418C24.9784 19.563 25.0155 19.5926 25.045 19.6285C25.0746 19.6644 25.0959 19.7059 25.1078 19.7503C25.1196 19.7947 25.1217 19.841 25.1138 19.8862C25.1059 19.9314 25.0882 19.9745 25.062 20.0127L25.0713 20.0396Z"/>
</svg>