<?xml version="1.0" encoding="utf-8"?>
<!-- Generator: Adobe Illustrator 27.1.1, SVG Export Plug-In . SVG Version: 6.00 Build 0)  -->
<svg version="1.1" xmlns="http://www.w3.org/2000/svg" xmlns:xlink="http://www.w3.org/1999/xlink" x="0px" y="0px"
	 viewBox="0 0 50 50" style="enable-background:new 0 0 50 50;" xml:space="preserve">
<path d="M16.9,11.1c-0.9,0-1.5-0.7-1.5-1.8s0.6-1.8,1.5-1.8h13.6c0.9,0,1.5,0.7,1.5,1.8s-0.6,1.8-1.5,1.8H16.9z"/>
<path d="M16.9,21c-0.9,0-1.5-0.7-1.5-1.8c0-0.8,0.6-1.8,1.5-1.8h13.6c0.9,0,1.5,0.7,1.5,1.8c0,0.8-0.6,1.8-1.5,1.8H16.9z"/>
<path d="M16.7,42.2c-0.5,0-1-0.2-1-1.8c0-1.1,0.7-1.8,1-1.8h5.6c0.5,0,1,0.2,1,1.8c0,1.1-0.7,1.8-1,1.8H16.7z"/>
<path d="M7.6,12.1c-0.6,0-0.8-0.4-0.8-0.8V7.6c0-0.4,0.4-0.8,0.8-0.8h3.8c0.3,0,0.8,0.1,0.8,0.8v3.8c0,0.4-0.4,0.8-0.8,0.8H7.6z"/>
<path d="M7.6,21.7c-0.4,0-0.8-0.4-0.8-0.8v-3.8c0-0.4,0.4-0.8,0.8-0.8h3.8c0.4,0,0.8,0.4,0.8,0.8v4c0,0.4-0.5,0.5-0.8,0.5H7.6z"/>
<path d="M7.6,43.2c-0.4,0-0.8-0.4-0.8-0.8v-3.8c0-0.4,0.4-0.8,0.8-0.8h3.8c0.4,0,0.8,0.4,0.8,0.8v3.8c0,0.4-0.4,0.8-0.8,0.8H7.6z"/>
<path d="M1.8,50C0.6,50,0,49.4,0,48.2V1.8C0,0.6,0.6,0,1.8,0h36.9c0.9,0,1.8,0.6,1.8,1.8v23.7l0.2,0c5.4,1,9.4,5.7,9.4,11.1
	c0,5.6-4,10.4-9.4,11.1l-0.2,0v0.5c0,0.9-0.6,1.8-1.8,1.8H1.8z M3.3,46.5h29.2L31.9,46c-2.8-2.1-4.4-5-4.6-8.2
	C27,34.9,28,31.9,30,29.5c1.6-2.1,3.9-3.4,6.9-3.9l0.2,0V3.3H3.3V46.5z M38.6,28.5c-4.5,0-8.1,3.6-8.1,8.1s3.6,8.1,8.1,8.1
	s8.1-3.6,8.1-8.1S43.1,28.5,38.6,28.5z"/>
<path d="M38.1,38.4L38.1,38.4c-0.9,0-1.8-0.6-1.8-1.8v-3.8c0-0.9,0.6-1.8,1.8-1.8c1.1,0,1.8,0.6,1.8,1.8v2.3h2.3
	c0.9,0,1.8,0.6,1.8,1.8c0,0.9-0.9,1.5-2,1.5H38.1z"/>
</svg>
