<svg width="24" height="26" viewBox="0 0 24 26" fill="none" xmlns="http://www.w3.org/2000/svg">
<path d="M19.5 16.8594C18.0182 16.8594 16.7015 17.5907 15.8811 18.7165L8.8176 15.0503C8.9361 14.6415 9 14.2091 9 13.7617C9 13.1558 8.88305 12.5773 8.6713 12.0477L16.0743 7.5303C16.9003 8.51495 18.1295 9.14062 19.5 9.14062C21.9813 9.14062 24 7.09038 24 4.57031C24 2.05024 21.9813 0 19.5 0C17.0187 0 15 2.05024 15 4.57031C15 5.15277 15.108 5.71 15.3045 6.22273L7.883 10.7514C7.0576 9.7958 5.84705 9.19141 4.5 9.19141C2.0187 9.19141 0 11.2416 0 13.7617C0 16.2818 2.0187 18.332 4.5 18.332C6.0061 18.332 7.3416 17.5766 8.15885 16.4193L15.2018 20.0748C15.0707 20.5031 15 20.9581 15 21.4297C15 23.9498 17.0187 26 19.5 26C21.9813 26 24 23.9498 24 21.4297C24 18.9096 21.9813 16.8594 19.5 16.8594ZM19.5 1.52344C21.1542 1.52344 22.5 2.89027 22.5 4.57031C22.5 6.25036 21.1542 7.61719 19.5 7.61719C17.8458 7.61719 16.5 6.25036 16.5 4.57031C16.5 2.89027 17.8458 1.52344 19.5 1.52344ZM4.5 16.8086C2.8458 16.8086 1.5 15.4418 1.5 13.7617C1.5 12.0817 2.8458 10.7148 4.5 10.7148C6.1542 10.7148 7.5 12.0817 7.5 13.7617C7.5 15.4418 6.1542 16.8086 4.5 16.8086ZM19.5 24.4766C17.8458 24.4766 16.5 23.1097 16.5 21.4297C16.5 19.7496 17.8458 18.3828 19.5 18.3828C21.1542 18.3828 22.5 19.7496 22.5 21.4297C22.5 23.1097 21.1542 24.4766 19.5 24.4766Z"/>
</svg>
