<svg width="31" height="31" viewBox="0 0 31 31" xmlns="http://www.w3.org/2000/svg">
<path d="M16.9419 1.05469C16.6352 0.410156 15.9871 0 15.2753 0C14.5635 0 13.9211 0.410156 13.6086 1.05469L9.88753 8.80664L1.57734 10.0488C0.882896 10.1543 0.304192 10.6465 0.0900721 11.3203C-0.124048 11.9941 0.0495626 12.7383 0.547248 13.2363L6.57734 19.2773L5.15373 27.8145C5.03799 28.5176 5.32734 29.2324 5.90026 29.6484C6.47317 30.0645 7.23128 30.1172 7.85628 29.7832L15.281 25.7695L22.7058 29.7832C23.3308 30.1172 24.0889 30.0703 24.6618 29.6484C25.2347 29.2266 25.5241 28.5176 25.4084 27.8145L23.979 19.2773L30.0091 13.2363C30.5067 12.7383 30.6861 11.9941 30.4662 11.3203C30.2463 10.6465 29.6734 10.1543 28.979 10.0488L20.663 8.80664L16.9419 1.05469Z" />
</svg>