<?xml version="1.0" encoding="utf-8"?>
<!-- Generator: Adobe Illustrator 25.3.1, SVG Export Plug-In . SVG Version: 6.00 Build 0)  -->
<svg version="1.1" xmlns="http://www.w3.org/2000/svg" xmlns:xlink="http://www.w3.org/1999/xlink" x="0px" y="0px"
	 viewBox="0 0 56.7 56.7" style="enable-background:new 0 0 56.7 56.7;" xml:space="preserve">
<path d="M30.9,24.5l3.3,1.6l5-1.5v-3.5c-0.2-5.9-5-10.6-10.9-10.6c-5.9,0-10.7,4.7-10.9,10.5v15.8c0,1.4-1.2,2.6-2.6,2.6
	s-2.6-1.2-2.6-2.6v-6.7H3.9c0,0,0,6.7,0,6.8c0,6,4.9,10.9,10.9,10.9c6,0,10.8-4.8,10.9-10.8l0-15.6c0-1.4,1.2-2.6,2.6-2.6
	c1.4,0,2.6,1.2,2.6,2.6V24.5z M44.4,30.2v7c0,1.4-1.2,2.6-2.6,2.6c-1.4,0-2.6-1.2-2.6-2.6v-6.9l-5,1.5l-3.3-1.6v6.8
	c0.1,6,4.9,10.8,10.9,10.8c6,0,10.9-4.9,10.9-10.9c0-0.1,0-6.8,0-6.8H44.4z"/>
</svg>
