<?xml version="1.0" encoding="utf-8"?>
<!-- Generator: Adobe Illustrator 25.3.1, SVG Export Plug-In . SVG Version: 6.00 Build 0)  -->
<svg version="1.1" xmlns="http://www.w3.org/2000/svg" xmlns:xlink="http://www.w3.org/1999/xlink" x="0px" y="0px"
	 viewBox="0 0 56.7 56.7" style="enable-background:new 0 0 56.7 56.7;" xml:space="preserve">
<path d="M30.5,5.2v11.4h11.4v8.8H30.5V38c0,2.9,0,4.5,0.3,5.3c0.3,0.8,1.1,1.6,1.9,2.1c1.1,0.7,2.3,1,3.7,1c2.5,0,5-0.8,7.4-2.4v7.8
	c-2.1,1-4,1.7-5.7,2.1c-1.7,0.4-3.5,0.6-5.5,0.6c-2.2,0-3.6-0.3-5.3-0.8c-1.7-0.6-3.2-1.4-4.4-2.4c-1.2-1.1-2.1-2.2-2.5-3.4
	c-0.5-1.2-0.7-2.9-0.7-5.2V25.4h-6.7v-7c1.9-0.6,4.2-1.5,5.6-2.7c1.4-1.2,2.5-2.6,3.3-4.2c0.8-1.6,1.4-3.7,1.7-6.3L30.5,5.2
	L30.5,5.2z"/>
</svg>
