<svg width="28" height="22" viewBox="0 0 28 22" xmlns="http://www.w3.org/2000/svg">
<path d="M28 2.6041C26.9694 3.04662 25.8624 3.34441 24.7004 3.47873C25.8872 2.79152 26.7971 1.70344 27.2257 0.406077C26.1165 1.04226 24.8867 1.50457 23.5772 1.75446C22.5294 0.674712 21.0369 0 19.3849 0C16.2125 0 13.6409 2.48748 13.6409 5.55388C13.6409 5.98911 13.6926 6.41393 13.7895 6.81897C9.01565 6.58782 4.78351 4.37626 1.94916 1.01519C1.45594 1.83568 1.17272 2.78944 1.17272 3.80879C1.17272 5.73506 2.18607 7.43537 3.72709 8.43078C2.78589 8.40163 1.89962 8.15173 1.12534 7.73629C1.12534 7.76023 1.12534 7.7821 1.12534 7.80605C1.12534 10.4976 3.10465 12.7425 5.73332 13.2516C5.25195 13.3787 4.74366 13.4464 4.21922 13.4464C3.84985 13.4464 3.4891 13.411 3.13911 13.3474C3.87031 15.5538 5.99177 17.1604 8.50521 17.2052C6.5399 18.6952 4.06307 19.5833 1.37087 19.5833C0.907811 19.5833 0.450137 19.5573 0 19.5052C2.54252 21.0806 5.56102 22 8.80566 22C19.372 22 25.1484 13.5369 25.1484 6.19736C25.1484 5.95684 25.143 5.71736 25.1323 5.47892C26.2555 4.69487 27.23 3.71717 28 2.6041Z"/>
</svg>